<svg width="593" height="597" viewBox="0 0 593 597" fill="none" xmlns="http://www.w3.org/2000/svg">
<path d="M363.253 129.727C419.398 150.237 515.327 225.538 563.748 321.479C580.847 355.359 600.141 388.901 589.604 417.974C576.433 454.317 525.051 402.458 491.377 426.019C457.704 449.579 491.952 540.087 456.496 574.094C421.04 608.1 347.344 600.433 308.175 567.732C269.006 535.03 236.331 481.482 193.791 391.118C151.251 300.755 110.65 306.234 70.2563 258.077C29.8621 209.921 7.2807 80.5656 1.13875 26.5537C-5.0032 -27.4581 130.043 14.8584 166.227 37.976C202.411 61.0936 293.071 104.089 363.253 129.727Z" fill="#FEE0BC"/>
</svg>
