<svg width="628" height="556" viewBox="0 0 628 556" fill="none" xmlns="http://www.w3.org/2000/svg">
<path d="M159.897 204.155C185.562 150.172 269.495 61.6956 369.54 22.4488C404.869 8.58926 440.066 -7.48651 468.028 5.72008C502.981 22.2283 446.55 68.5418 466.862 104.269C487.173 139.996 580.485 114.352 611.031 152.83C641.576 191.308 627.059 263.966 590.841 299.908C554.624 335.851 498.258 363.381 404.315 397.294C310.373 431.206 312.036 472.141 260.316 507.86C208.597 543.579 77.6978 553.978 23.3483 555.048C-31.0011 556.118 23.7456 425.615 50.1422 391.748C76.5388 357.882 127.815 271.635 159.897 204.155Z" fill="#F9ECEB"/>
</svg>
